<mxfile host="app.diagrams.net" agent="Mozilla/5.0 (Windows NT 10.0; Win64; x64) AppleWebKit/537.36 (KHTML, like Gecko) Chrome/137.0.0.0 Safari/537.36 Edg/137.0.0.0" version="27.1.6">
  <diagram id="wFE0QG_FPsp0jaGvCLVb" name="Page-1">
    <mxGraphModel grid="1" page="1" gridSize="10" guides="1" tooltips="1" connect="1" arrows="1" fold="1" pageScale="1" pageWidth="1100" pageHeight="850" math="0" shadow="0">
      <root>
        <mxCell id="0" />
        <mxCell id="1" parent="0" />
        <mxCell id="zbrV3LvnrfmHQCfpD2rp-5" value="TEST SCENARIOS" style="shape=table;childLayout=tableLayout;startSize=40;collapsible=0;recursiveResize=0;expand=0;fontSize=16;" vertex="1" parent="1">
          <mxGeometry x="70" y="40" width="980" height="710" as="geometry" />
        </mxCell>
        <mxCell id="zbrV3LvnrfmHQCfpD2rp-6" value="Actor 1" style="shape=tableRow;horizontal=0;swimlaneHead=0;swimlaneBody=0;top=0;left=0;strokeColor=inherit;bottom=0;right=0;dropTarget=0;fontStyle=0;fillColor=none;points=[[0,0.5],[1,0.5]];portConstraint=eastwest;startSize=40;collapsible=0;recursiveResize=0;expand=0;fontSize=16;" vertex="1" parent="zbrV3LvnrfmHQCfpD2rp-5">
          <mxGeometry y="40" width="980" height="223" as="geometry" />
        </mxCell>
        <mxCell id="zbrV3LvnrfmHQCfpD2rp-7" value="Test IDÂ " style="swimlane;swimlaneHead=0;swimlaneBody=0;fontStyle=0;strokeColor=inherit;connectable=0;fillColor=none;startSize=40;collapsible=0;recursiveResize=0;expand=0;fontSize=16;" vertex="1" parent="zbrV3LvnrfmHQCfpD2rp-6">
          <mxGeometry x="40" width="188" height="223" as="geometry">
            <mxRectangle width="188" height="223" as="alternateBounds" />
          </mxGeometry>
        </mxCell>
        <mxCell id="zbrV3LvnrfmHQCfpD2rp-8" value="Test scenario" style="swimlane;swimlaneHead=0;swimlaneBody=0;fontStyle=0;strokeColor=inherit;connectable=0;fillColor=none;startSize=40;collapsible=0;recursiveResize=0;expand=0;fontSize=16;" vertex="1" parent="zbrV3LvnrfmHQCfpD2rp-6">
          <mxGeometry x="228" width="188" height="223" as="geometry">
            <mxRectangle width="188" height="223" as="alternateBounds" />
          </mxGeometry>
        </mxCell>
        <mxCell id="zbrV3LvnrfmHQCfpD2rp-9" value="Expected Result" style="swimlane;swimlaneHead=0;swimlaneBody=0;fontStyle=0;strokeColor=inherit;connectable=0;fillColor=none;startSize=40;collapsible=0;recursiveResize=0;expand=0;fontSize=16;" vertex="1" parent="zbrV3LvnrfmHQCfpD2rp-6">
          <mxGeometry x="416" width="188" height="223" as="geometry">
            <mxRectangle width="188" height="223" as="alternateBounds" />
          </mxGeometry>
        </mxCell>
        <mxCell id="zbrV3LvnrfmHQCfpD2rp-21" value="Accepted Criteria" style="swimlane;swimlaneHead=0;swimlaneBody=0;fontStyle=0;strokeColor=inherit;connectable=0;fillColor=none;startSize=40;collapsible=0;recursiveResize=0;expand=0;fontSize=16;" vertex="1" parent="zbrV3LvnrfmHQCfpD2rp-6">
          <mxGeometry x="604" width="188" height="223" as="geometry">
            <mxRectangle width="188" height="223" as="alternateBounds" />
          </mxGeometry>
        </mxCell>
        <mxCell id="zbrV3LvnrfmHQCfpD2rp-18" value="Date Implemented" style="swimlane;swimlaneHead=0;swimlaneBody=0;fontStyle=0;strokeColor=inherit;connectable=0;fillColor=none;startSize=40;collapsible=0;recursiveResize=0;expand=0;fontSize=16;" vertex="1" parent="zbrV3LvnrfmHQCfpD2rp-6">
          <mxGeometry x="792" width="188" height="223" as="geometry">
            <mxRectangle width="188" height="223" as="alternateBounds" />
          </mxGeometry>
        </mxCell>
        <mxCell id="zbrV3LvnrfmHQCfpD2rp-10" value="Actor 2" style="shape=tableRow;horizontal=0;swimlaneHead=0;swimlaneBody=0;top=0;left=0;strokeColor=inherit;bottom=0;right=0;dropTarget=0;fontStyle=0;fillColor=none;points=[[0,0.5],[1,0.5]];portConstraint=eastwest;startSize=40;collapsible=0;recursiveResize=0;expand=0;fontSize=16;" vertex="1" parent="zbrV3LvnrfmHQCfpD2rp-5">
          <mxGeometry y="263" width="980" height="224" as="geometry" />
        </mxCell>
        <mxCell id="zbrV3LvnrfmHQCfpD2rp-11" value="" style="swimlane;swimlaneHead=0;swimlaneBody=0;fontStyle=0;connectable=0;strokeColor=inherit;fillColor=none;startSize=0;collapsible=0;recursiveResize=0;expand=0;fontSize=16;" vertex="1" parent="zbrV3LvnrfmHQCfpD2rp-10">
          <mxGeometry x="40" width="188" height="224" as="geometry">
            <mxRectangle width="188" height="224" as="alternateBounds" />
          </mxGeometry>
        </mxCell>
        <mxCell id="zbrV3LvnrfmHQCfpD2rp-12" value="" style="swimlane;swimlaneHead=0;swimlaneBody=0;fontStyle=0;connectable=0;strokeColor=inherit;fillColor=none;startSize=0;collapsible=0;recursiveResize=0;expand=0;fontSize=16;" vertex="1" parent="zbrV3LvnrfmHQCfpD2rp-10">
          <mxGeometry x="228" width="188" height="224" as="geometry">
            <mxRectangle width="188" height="224" as="alternateBounds" />
          </mxGeometry>
        </mxCell>
        <mxCell id="zbrV3LvnrfmHQCfpD2rp-13" value="" style="swimlane;swimlaneHead=0;swimlaneBody=0;fontStyle=0;connectable=0;strokeColor=inherit;fillColor=none;startSize=0;collapsible=0;recursiveResize=0;expand=0;fontSize=16;" vertex="1" parent="zbrV3LvnrfmHQCfpD2rp-10">
          <mxGeometry x="416" width="188" height="224" as="geometry">
            <mxRectangle width="188" height="224" as="alternateBounds" />
          </mxGeometry>
        </mxCell>
        <mxCell id="zbrV3LvnrfmHQCfpD2rp-22" style="swimlane;swimlaneHead=0;swimlaneBody=0;fontStyle=0;connectable=0;strokeColor=inherit;fillColor=none;startSize=0;collapsible=0;recursiveResize=0;expand=0;fontSize=16;" vertex="1" parent="zbrV3LvnrfmHQCfpD2rp-10">
          <mxGeometry x="604" width="188" height="224" as="geometry">
            <mxRectangle width="188" height="224" as="alternateBounds" />
          </mxGeometry>
        </mxCell>
        <mxCell id="zbrV3LvnrfmHQCfpD2rp-19" style="swimlane;swimlaneHead=0;swimlaneBody=0;fontStyle=0;connectable=0;strokeColor=inherit;fillColor=none;startSize=0;collapsible=0;recursiveResize=0;expand=0;fontSize=16;" vertex="1" parent="zbrV3LvnrfmHQCfpD2rp-10">
          <mxGeometry x="792" width="188" height="224" as="geometry">
            <mxRectangle width="188" height="224" as="alternateBounds" />
          </mxGeometry>
        </mxCell>
        <mxCell id="zbrV3LvnrfmHQCfpD2rp-14" value="Actor 3" style="shape=tableRow;horizontal=0;swimlaneHead=0;swimlaneBody=0;top=0;left=0;strokeColor=inherit;bottom=0;right=0;dropTarget=0;fontStyle=0;fillColor=none;points=[[0,0.5],[1,0.5]];portConstraint=eastwest;startSize=40;collapsible=0;recursiveResize=0;expand=0;fontSize=16;" vertex="1" parent="zbrV3LvnrfmHQCfpD2rp-5">
          <mxGeometry y="487" width="980" height="223" as="geometry" />
        </mxCell>
        <mxCell id="zbrV3LvnrfmHQCfpD2rp-15" value="" style="swimlane;swimlaneHead=0;swimlaneBody=0;fontStyle=0;connectable=0;strokeColor=inherit;fillColor=none;startSize=0;collapsible=0;recursiveResize=0;expand=0;fontSize=16;" vertex="1" parent="zbrV3LvnrfmHQCfpD2rp-14">
          <mxGeometry x="40" width="188" height="223" as="geometry">
            <mxRectangle width="188" height="223" as="alternateBounds" />
          </mxGeometry>
        </mxCell>
        <mxCell id="zbrV3LvnrfmHQCfpD2rp-16" value="" style="swimlane;swimlaneHead=0;swimlaneBody=0;fontStyle=0;connectable=0;strokeColor=inherit;fillColor=none;startSize=0;collapsible=0;recursiveResize=0;expand=0;fontSize=16;" vertex="1" parent="zbrV3LvnrfmHQCfpD2rp-14">
          <mxGeometry x="228" width="188" height="223" as="geometry">
            <mxRectangle width="188" height="223" as="alternateBounds" />
          </mxGeometry>
        </mxCell>
        <mxCell id="zbrV3LvnrfmHQCfpD2rp-17" value="" style="swimlane;swimlaneHead=0;swimlaneBody=0;fontStyle=0;connectable=0;strokeColor=inherit;fillColor=none;startSize=0;collapsible=0;recursiveResize=0;expand=0;fontSize=16;" vertex="1" parent="zbrV3LvnrfmHQCfpD2rp-14">
          <mxGeometry x="416" width="188" height="223" as="geometry">
            <mxRectangle width="188" height="223" as="alternateBounds" />
          </mxGeometry>
        </mxCell>
        <mxCell id="zbrV3LvnrfmHQCfpD2rp-23" style="swimlane;swimlaneHead=0;swimlaneBody=0;fontStyle=0;connectable=0;strokeColor=inherit;fillColor=none;startSize=0;collapsible=0;recursiveResize=0;expand=0;fontSize=16;" vertex="1" parent="zbrV3LvnrfmHQCfpD2rp-14">
          <mxGeometry x="604" width="188" height="223" as="geometry">
            <mxRectangle width="188" height="223" as="alternateBounds" />
          </mxGeometry>
        </mxCell>
        <mxCell id="zbrV3LvnrfmHQCfpD2rp-20" style="swimlane;swimlaneHead=0;swimlaneBody=0;fontStyle=0;connectable=0;strokeColor=inherit;fillColor=none;startSize=0;collapsible=0;recursiveResize=0;expand=0;fontSize=16;" vertex="1" parent="zbrV3LvnrfmHQCfpD2rp-14">
          <mxGeometry x="792" width="188" height="223" as="geometry">
            <mxRectangle width="188" height="223" as="alternateBounds" />
          </mxGeometry>
        </mxCell>
      </root>
    </mxGraphModel>
  </diagram>
</mxfile>
